<?xml version="1.0" encoding="UTF-8"?>
<!DOCTYPE svg PUBLIC "-//W3C//DTD SVG 1.1//EN" "http://www.w3.org/Graphics/SVG/1.1/DTD/svg11.dtd">
<svg xmlns="http://www.w3.org/2000/svg" version="1.1" width="512px" height="512px" style="shape-rendering:geometricPrecision; text-rendering:geometricPrecision; image-rendering:optimizeQuality; fill-rule:evenodd; clip-rule:evenodd" xmlns:xlink="http://www.w3.org/1999/xlink">
<g><path style="opacity:0.958" fill="#f700e6" d="M 187.5,15.5 C 267.654,10.8261 329.487,41.8261 373,108.5C 400.071,156.064 406.738,206.398 393,259.5C 384.405,288.534 370.238,314.367 350.5,337C 359.29,346.792 368.457,356.292 378,365.5C 394.287,357.096 410.12,357.93 425.5,368C 446,388.5 466.5,409 487,429.5C 494.849,439.902 497.516,451.569 495,464.5C 486.519,489.998 469.019,499.831 442.5,494C 438.221,492.527 434.221,490.527 430.5,488C 409.333,466.833 388.167,445.667 367,424.5C 359.975,414.192 357.642,402.859 360,390.5C 361.406,385.735 362.739,381.068 364,376.5C 355.5,368 347,359.5 338.5,351C 337.5,350.333 336.5,350.333 335.5,351C 290.742,389.867 238.742,405.534 179.5,398C 112.434,386.244 63.6005,350.078 33,289.5C 13.0765,243.624 10.0765,196.624 24,148.5C 48.6947,79.7296 96.528,36.5629 167.5,19C 174.325,17.9192 180.992,16.7526 187.5,15.5 Z M 206.5,31.5 C 281.08,34.9645 334.913,69.9645 368,136.5C 394.64,203.988 385.307,265.988 340,322.5C 295.39,370.704 240.556,389.871 175.5,380C 115.921,367.302 73.0877,333.469 47,278.5C 20.3601,211.012 29.6935,149.012 75,92.5C 110.238,53.6309 154.071,33.2976 206.5,31.5 Z M 394.5,376.5 C 400.865,375.901 406.865,377.068 412.5,380C 433.333,400.833 454.167,421.667 475,442.5C 482.509,458.98 478.009,470.814 461.5,478C 454.785,479.248 448.452,478.248 442.5,475C 421.667,454.167 400.833,433.333 380,412.5C 372.441,395.321 377.274,383.321 394.5,376.5 Z"/></g>
<g><path style="opacity:0.931" fill="#f700e6" d="M 347.5,199.5 C 358.86,198.71 362.193,203.543 357.5,214C 346.964,217.997 342.464,214.497 344,203.5C 344.69,201.65 345.856,200.316 347.5,199.5 Z"/></g>
<g><path style="opacity:0.955" fill="#f700e6" d="M 343.5,240.5 C 349.848,240.318 353.181,243.318 353.5,249.5C 334.944,308.55 295.277,344.383 234.5,357C 226.524,358.054 218.524,358.887 210.5,359.5C 201.265,359.767 197.765,355.434 200,346.5C 200.5,344.667 201.667,343.5 203.5,343C 264.224,341.25 307.39,313.084 333,258.5C 334.673,253.823 336.34,249.157 338,244.5C 339.5,242.531 341.333,241.198 343.5,240.5 Z"/></g>
</svg>
